<?xml version="1.0" encoding="UTF-8" standalone="no"?>
<!DOCTYPE svg PUBLIC "-//W3C//DTD SVG 1.1//EN" "http://www.w3.org/Graphics/SVG/1.1/DTD/svg11.dtd">
<svg version="1.1" xmlns="http://www.w3.org/2000/svg" xmlns:xlink="http://www.w3.org/1999/xlink" preserveAspectRatio="xMidYMid meet" viewBox="0 0 200 100" width="200" height="100"><defs><path d="M80.14 15.54L81.53 15.68L82.91 15.88L84.27 16.13L85.61 16.43L86.93 16.78L88.23 17.19L89.5 17.64L90.76 18.14L91.98 18.69L93.19 19.29L94.36 19.93L95.51 20.61L96.63 21.33L97.72 22.1L98.77 22.91L99.8 23.75L100.79 24.64L101.75 25.56L102.67 26.51L103.55 27.5L104.4 28.53L105.2 29.59L105.97 30.67L106.69 31.79L107.38 32.94L108.02 34.12L108.61 35.32L109.16 36.55L109.66 37.8L110.11 39.08L110.52 40.38L110.87 41.7L111.18 43.04L111.43 44.39L111.62 45.77L111.76 47.17L111.85 48.58L111.88 50L111.85 51.42L111.76 52.83L111.62 54.23L111.43 55.61L111.18 56.96L110.87 58.3L110.52 59.62L110.11 60.92L109.66 62.2L109.16 63.45L108.61 64.68L108.02 65.88L107.38 67.06L106.69 68.21L105.97 69.33L105.2 70.41L104.4 71.47L103.55 72.5L102.67 73.49L101.75 74.44L100.79 75.36L99.8 76.25L98.77 77.09L97.72 77.9L96.63 78.67L95.51 79.39L94.36 80.07L93.19 80.71L91.98 81.31L90.76 81.86L89.5 82.36L88.23 82.81L86.93 83.22L85.61 83.57L84.27 83.87L82.91 84.12L81.53 84.32L80.14 84.46L78.73 84.55L77.3 84.58L75.88 84.55L74.47 84.46L73.07 84.32L71.7 84.12L70.34 83.87L69 83.57L67.68 83.22L66.38 82.81L65.1 82.36L63.85 81.86L62.62 81.31L61.42 80.71L60.24 80.07L59.1 79.39L57.98 78.67L56.89 77.9L55.83 77.09L54.81 76.25L53.82 75.36L52.86 74.44L51.94 73.49L51.05 72.5L50.21 71.47L49.4 70.41L48.64 69.33L47.91 68.21L47.23 67.06L46.59 65.88L45.99 64.68L45.45 63.45L44.94 62.2L44.49 60.92L44.09 59.62L43.73 58.3L43.43 56.96L43.18 55.61L42.98 54.23L42.84 52.83L42.76 51.42L42.73 50L42.76 48.58L42.84 47.17L42.98 45.77L43.18 44.39L43.43 43.04L43.73 41.7L44.09 40.38L44.49 39.08L44.94 37.8L45.45 36.55L45.99 35.32L46.59 34.12L47.23 32.94L47.91 31.79L48.64 30.67L49.4 29.59L50.21 28.53L51.05 27.5L51.94 26.51L52.86 25.56L53.82 24.64L54.81 23.75L55.83 22.91L56.89 22.1L57.98 21.33L59.1 20.61L60.24 19.93L61.42 19.29L62.62 18.69L63.85 18.14L65.1 17.64L66.38 17.19L67.68 16.78L69 16.43L70.34 16.13L71.7 15.88L73.07 15.68L74.47 15.54L75.88 15.45L77.3 15.42L78.73 15.45L80.14 15.54ZM74.69 39.87L73.48 40.25L72.35 40.78L71.29 41.42L70.32 42.19L69.45 43.06L68.68 44.03L68.03 45.09L67.51 46.22L67.13 47.43L66.89 48.69L66.81 50L66.89 51.31L67.13 52.57L67.51 53.78L68.03 54.91L68.68 55.97L69.45 56.94L70.32 57.81L71.29 58.58L72.35 59.22L73.48 59.75L74.69 60.13L75.95 60.37L77.26 60.45L78.57 60.37L79.83 60.13L81.03 59.75L82.17 59.22L83.23 58.58L84.2 57.81L85.07 56.94L85.83 55.97L86.48 54.91L87 53.78L87.39 52.57L87.63 51.31L87.71 50L87.63 48.69L87.39 47.43L87 46.22L86.48 45.09L85.83 44.03L85.07 43.06L84.2 42.19L83.23 41.42L82.17 40.78L81.03 40.25L79.83 39.87L78.57 39.63L77.26 39.55L75.95 39.63L74.69 39.87Z" id="a4ekOsxfYp"></path><path d="M125.53 15.54L126.93 15.68L128.3 15.88L129.66 16.13L131 16.43L132.32 16.78L133.62 17.19L134.9 17.64L136.15 18.14L137.38 18.69L138.58 19.29L139.76 19.93L140.9 20.61L142.02 21.33L143.11 22.1L144.17 22.91L145.19 23.75L146.18 24.64L147.14 25.56L148.06 26.51L148.95 27.5L149.79 28.53L150.6 29.59L151.36 30.67L152.09 31.79L152.77 32.94L153.41 34.12L154.01 35.32L154.55 36.55L155.06 37.8L155.51 39.08L155.91 40.38L156.27 41.7L156.57 43.04L156.82 44.39L157.02 45.77L157.16 47.17L157.24 48.58L157.27 50L157.24 51.42L157.16 52.83L157.02 54.23L156.82 55.61L156.57 56.96L156.27 58.3L155.91 59.62L155.51 60.92L155.06 62.2L154.55 63.45L154.01 64.68L153.41 65.88L152.77 67.06L152.09 68.21L151.36 69.33L150.6 70.41L149.79 71.47L148.95 72.5L148.06 73.49L147.14 74.44L146.18 75.36L145.19 76.25L144.17 77.09L143.11 77.9L142.02 78.67L140.9 79.39L139.76 80.07L138.58 80.71L137.38 81.31L136.15 81.86L134.9 82.36L133.62 82.81L132.32 83.22L131 83.57L129.66 83.87L128.3 84.12L126.93 84.32L125.53 84.46L124.12 84.55L122.7 84.58L121.27 84.55L119.86 84.46L118.47 84.32L117.09 84.12L115.73 83.87L114.39 83.57L113.07 83.22L111.77 82.81L110.5 82.36L109.24 81.86L108.02 81.31L106.81 80.71L105.64 80.07L104.49 79.39L103.37 78.67L102.28 77.9L101.23 77.09L100.2 76.25L99.21 75.36L98.25 74.44L97.33 73.49L96.45 72.5L95.6 71.47L94.8 70.41L94.03 69.33L93.31 68.21L92.62 67.06L91.98 65.88L91.39 64.68L90.84 63.45L90.34 62.2L89.89 60.92L89.48 59.62L89.13 58.3L88.82 56.96L88.57 55.61L88.38 54.23L88.24 52.83L88.15 51.42L88.12 50L88.15 48.58L88.24 47.17L88.38 45.77L88.57 44.39L88.82 43.04L89.13 41.7L89.48 40.38L89.89 39.08L90.34 37.8L90.84 36.55L91.39 35.32L91.98 34.12L92.62 32.94L93.31 31.79L94.03 30.67L94.8 29.59L95.6 28.53L96.45 27.5L97.33 26.51L98.25 25.56L99.21 24.64L100.2 23.75L101.23 22.91L102.28 22.1L103.37 21.33L104.49 20.61L105.64 19.93L106.81 19.29L108.02 18.69L109.24 18.14L110.5 17.64L111.77 17.19L113.07 16.78L114.39 16.43L115.73 16.13L117.09 15.88L118.47 15.68L119.86 15.54L121.27 15.45L122.7 15.42L124.12 15.45L125.53 15.54ZM120.08 39.87L118.88 40.25L117.74 40.78L116.68 41.42L115.71 42.19L114.84 43.06L114.08 44.03L113.43 45.09L112.91 46.22L112.52 47.43L112.29 48.69L112.2 50L112.29 51.31L112.52 52.57L112.91 53.78L113.43 54.91L114.08 55.97L114.84 56.94L115.71 57.81L116.68 58.58L117.74 59.22L118.88 59.75L120.08 60.13L121.34 60.37L122.65 60.45L123.96 60.37L125.22 60.13L126.43 59.75L127.56 59.22L128.62 58.58L129.59 57.81L130.46 56.94L131.23 55.97L131.88 54.91L132.4 53.78L132.78 52.57L133.02 51.31L133.1 50L133.02 48.69L132.78 47.43L132.4 46.22L131.88 45.09L131.23 44.03L130.46 43.06L129.59 42.19L128.62 41.42L127.56 40.78L126.43 40.25L125.22 39.87L123.96 39.63L122.65 39.55L121.34 39.63L120.08 39.87Z" id="a2Ur2AO8AQ"></path><path d="M80.14 15.54L81.53 15.68L82.91 15.88L84.27 16.13L85.61 16.43L86.93 16.78L88.23 17.19L89.5 17.64L90.76 18.14L91.98 18.69L93.19 19.29L94.36 19.93L95.51 20.61L96.63 21.33L97.72 22.1L98.77 22.91L99.8 23.75L100.79 24.64L101.75 25.56L102.67 26.51L103.55 27.5L104.4 28.53L105.2 29.59L105.97 30.67L106.69 31.79L107.38 32.94L108.02 34.12L108.61 35.32L109.16 36.55L109.66 37.8L110.11 39.08L110.52 40.38L110.87 41.7L111.18 43.04L111.43 44.39L111.62 45.77L111.76 47.17L111.85 48.58L111.88 50L111.85 51.42L111.76 52.83L111.62 54.23L111.43 55.61L111.18 56.96L110.87 58.3L110.52 59.62L110.11 60.92L109.66 62.2L109.16 63.45L108.61 64.68L108.02 65.88L107.38 67.06L106.69 68.21L105.97 69.33L105.2 70.41L104.4 71.47L103.55 72.5L102.67 73.49L101.75 74.44L100.79 75.36L99.8 76.25L98.77 77.09L97.72 77.9L96.63 78.67L95.51 79.39L94.36 80.07L93.19 80.71L91.98 81.31L90.76 81.86L89.5 82.36L88.23 82.81L86.93 83.22L85.61 83.57L84.27 83.87L82.91 84.12L81.53 84.32L80.14 84.46L78.73 84.55L77.3 84.58L75.88 84.55L74.47 84.46L73.07 84.32L71.7 84.12L70.34 83.87L69 83.57L67.68 83.22L66.38 82.81L65.1 82.36L63.85 81.86L62.62 81.31L61.42 80.71L60.24 80.07L59.1 79.39L57.98 78.67L56.89 77.9L55.83 77.09L54.81 76.25L53.82 75.36L52.86 74.44L51.94 73.49L51.05 72.5L50.21 71.47L49.4 70.41L48.64 69.33L47.91 68.21L47.23 67.06L46.59 65.88L45.99 64.68L45.45 63.45L44.94 62.2L44.49 60.92L44.09 59.62L43.73 58.3L43.43 56.96L43.18 55.61L42.98 54.23L42.84 52.83L42.76 51.42L42.73 50L42.76 48.58L42.84 47.17L42.98 45.77L43.18 44.39L43.43 43.04L43.73 41.7L44.09 40.38L44.49 39.08L44.94 37.8L45.45 36.55L45.99 35.32L46.59 34.12L47.23 32.94L47.91 31.79L48.64 30.67L49.4 29.59L50.21 28.53L51.05 27.5L51.94 26.51L52.86 25.56L53.82 24.64L54.81 23.75L55.83 22.91L56.89 22.1L57.98 21.33L59.1 20.61L60.24 19.93L61.42 19.29L62.62 18.69L63.85 18.14L65.1 17.64L66.38 17.19L67.68 16.78L69 16.43L70.34 16.13L71.7 15.88L73.07 15.68L74.47 15.54L75.88 15.45L77.3 15.42L78.73 15.45L80.14 15.54ZM74.69 39.87L73.48 40.25L72.35 40.78L71.29 41.42L70.32 42.19L69.45 43.06L68.68 44.03L68.03 45.09L67.51 46.22L67.13 47.43L66.89 48.69L66.81 50L66.89 51.31L67.13 52.57L67.51 53.78L68.03 54.91L68.68 55.97L69.45 56.94L70.32 57.81L71.29 58.58L72.35 59.22L73.48 59.75L74.69 60.13L75.95 60.37L77.26 60.45L78.57 60.37L79.83 60.13L81.03 59.75L82.17 59.22L83.23 58.58L84.2 57.81L85.07 56.94L85.83 55.97L86.48 54.91L87 53.78L87.39 52.57L87.63 51.31L87.71 50L87.63 48.69L87.39 47.43L87 46.22L86.48 45.09L85.83 44.03L85.07 43.06L84.2 42.19L83.23 41.42L82.17 40.78L81.03 40.25L79.83 39.87L78.57 39.63L77.26 39.55L75.95 39.63L74.69 39.87Z" id="c8ex8d0W4"></path></defs><g><g><g><use xlink:href="#a4ekOsxfYp" opacity="1" fill="#ff1b57" fill-opacity="1"></use></g><g><use xlink:href="#a2Ur2AO8AQ" opacity="1" fill="#0399ff" fill-opacity="1"></use></g><g><use xlink:href="#c8ex8d0W4" opacity="0.59" fill="#ff1b57" fill-opacity="1"></use></g></g></g></svg>