<?xml version="1.0" encoding="UTF-8" standalone="no"?>
<!DOCTYPE svg PUBLIC "-//W3C//DTD SVG 1.1//EN" "http://www.w3.org/Graphics/SVG/1.1/DTD/svg11.dtd">
<svg version="1.1" xmlns="http://www.w3.org/2000/svg" xmlns:xlink="http://www.w3.org/1999/xlink" preserveAspectRatio="xMidYMid meet" viewBox="0 0 200 100" width="200" height="100"><defs><path d="M102.83 15.54L104.23 15.68L105.61 15.88L106.96 16.13L108.3 16.43L109.62 16.78L110.92 17.19L112.2 17.64L113.45 18.14L114.68 18.69L115.88 19.29L117.06 19.93L118.21 20.61L119.33 21.33L120.41 22.1L121.47 22.91L122.5 23.75L123.49 24.64L124.44 25.56L125.36 26.51L126.25 27.5L127.09 28.53L127.9 29.59L128.67 30.67L129.39 31.79L130.07 32.94L130.71 34.12L131.31 35.32L131.86 36.55L132.36 37.8L132.81 39.08L133.22 40.38L133.57 41.7L133.87 43.04L134.12 44.39L134.32 45.77L134.46 47.17L134.55 48.58L134.58 50L134.55 51.42L134.46 52.83L134.32 54.23L134.12 55.61L133.87 56.96L133.57 58.3L133.22 59.62L132.81 60.92L132.36 62.2L131.86 63.45L131.31 64.68L130.71 65.88L130.07 67.06L129.39 68.21L128.67 69.33L127.9 70.41L127.09 71.47L126.25 72.5L125.36 73.49L124.44 74.44L123.49 75.36L122.5 76.25L121.47 77.09L120.41 77.9L119.33 78.67L118.21 79.39L117.06 80.07L115.88 80.71L114.68 81.31L113.45 81.86L112.2 82.36L110.92 82.81L109.62 83.22L108.3 83.57L106.96 83.87L105.61 84.12L104.23 84.32L102.83 84.46L101.42 84.55L100 84.58L98.58 84.55L97.17 84.46L95.77 84.32L94.39 84.12L93.04 83.87L91.7 83.57L90.38 83.22L89.08 82.81L87.8 82.36L86.55 81.86L85.32 81.31L84.12 80.71L82.94 80.07L81.79 79.39L80.67 78.67L79.59 77.9L78.53 77.09L77.5 76.25L76.51 75.36L75.56 74.44L74.64 73.49L73.75 72.5L72.91 71.47L72.1 70.41L71.33 69.33L70.61 68.21L69.93 67.06L69.29 65.88L68.69 64.68L68.14 63.45L67.64 62.2L67.19 60.92L66.78 59.62L66.43 58.3L66.13 56.96L65.88 55.61L65.68 54.23L65.54 52.83L65.45 51.42L65.42 50L65.45 48.58L65.54 47.17L65.68 45.77L65.88 44.39L66.13 43.04L66.43 41.7L66.78 40.38L67.19 39.08L67.64 37.8L68.14 36.55L68.69 35.32L69.29 34.12L69.93 32.94L70.61 31.79L71.33 30.67L72.1 29.59L72.91 28.53L73.75 27.5L74.64 26.51L75.56 25.56L76.51 24.64L77.5 23.75L78.53 22.91L79.59 22.1L80.67 21.33L81.79 20.61L82.94 19.93L84.12 19.29L85.32 18.69L86.55 18.14L87.8 17.64L89.08 17.19L90.38 16.78L91.7 16.43L93.04 16.13L94.39 15.88L95.77 15.68L97.17 15.54L98.58 15.45L100 15.42L101.42 15.45L102.83 15.54ZM97.38 39.87L96.18 40.25L95.05 40.78L93.99 41.42L93.02 42.19L92.14 43.06L91.38 44.03L90.73 45.09L90.21 46.22L89.83 47.43L89.59 48.69L89.51 50L89.59 51.31L89.83 52.57L90.21 53.78L90.73 54.91L91.38 55.97L92.14 56.94L93.02 57.81L93.99 58.58L95.05 59.22L96.18 59.75L97.38 60.13L98.65 60.37L99.96 60.45L101.27 60.37L102.53 60.13L103.73 59.75L104.87 59.22L105.92 58.58L106.89 57.81L107.77 56.94L108.53 55.97L109.18 54.91L109.7 53.78L110.09 52.57L110.32 51.31L110.41 50L110.32 48.69L110.09 47.43L109.7 46.22L109.18 45.09L108.53 44.03L107.77 43.06L106.89 42.19L105.92 41.42L104.87 40.78L103.73 40.25L102.53 39.87L101.27 39.63L99.96 39.55L98.65 39.63L97.38 39.87Z" id="c6EmWKQ0t"></path><path d="M102.83 15.54L104.23 15.68L105.61 15.88L106.96 16.13L108.3 16.43L109.62 16.78L110.92 17.19L112.2 17.64L113.45 18.14L114.68 18.69L115.88 19.29L117.06 19.93L118.21 20.61L119.33 21.33L120.41 22.1L121.47 22.91L122.5 23.75L123.49 24.64L124.44 25.56L125.36 26.51L126.25 27.5L127.09 28.53L127.9 29.59L128.67 30.67L129.39 31.79L130.07 32.94L130.71 34.12L131.31 35.32L131.86 36.55L132.36 37.8L132.81 39.08L133.22 40.38L133.57 41.7L133.87 43.04L134.12 44.39L134.32 45.77L134.46 47.17L134.55 48.58L134.58 50L134.55 51.42L134.46 52.83L134.32 54.23L134.12 55.61L133.87 56.96L133.57 58.3L133.22 59.62L132.81 60.92L132.36 62.2L131.86 63.45L131.31 64.68L130.71 65.88L130.07 67.06L129.39 68.21L128.67 69.33L127.9 70.41L127.09 71.47L126.25 72.5L125.36 73.49L124.44 74.44L123.49 75.36L122.5 76.25L121.47 77.09L120.41 77.9L119.33 78.67L118.21 79.39L117.06 80.07L115.88 80.71L114.68 81.31L113.45 81.86L112.2 82.36L110.92 82.81L109.62 83.22L108.3 83.57L106.96 83.87L105.61 84.12L104.23 84.32L102.83 84.46L101.42 84.55L100 84.58L98.58 84.55L97.17 84.46L95.77 84.32L94.39 84.12L93.04 83.87L91.7 83.57L90.38 83.22L89.08 82.81L87.8 82.36L86.55 81.86L85.32 81.31L84.12 80.71L82.94 80.07L81.79 79.39L80.67 78.67L79.59 77.9L78.53 77.09L77.5 76.25L76.51 75.36L75.56 74.44L74.64 73.49L73.75 72.5L72.91 71.47L72.1 70.41L71.33 69.33L70.61 68.21L69.93 67.06L69.29 65.88L68.69 64.68L68.14 63.45L67.64 62.2L67.19 60.92L66.78 59.62L66.43 58.3L66.13 56.96L65.88 55.61L65.68 54.23L65.54 52.83L65.45 51.42L65.42 50L65.45 48.58L65.54 47.17L65.68 45.77L65.88 44.39L66.13 43.04L66.43 41.7L66.78 40.38L67.19 39.08L67.64 37.8L68.14 36.55L68.69 35.32L69.29 34.12L69.93 32.94L70.61 31.79L71.33 30.67L72.1 29.59L72.91 28.53L73.75 27.5L74.64 26.51L75.56 25.56L76.51 24.64L77.5 23.75L78.53 22.91L79.59 22.1L80.67 21.33L81.79 20.61L82.94 19.93L84.12 19.29L85.32 18.69L86.55 18.14L87.8 17.64L89.08 17.19L90.38 16.78L91.7 16.43L93.04 16.13L94.39 15.88L95.77 15.68L97.17 15.54L98.58 15.45L100 15.42L101.42 15.45L102.83 15.54ZM97.38 39.87L96.18 40.25L95.05 40.78L93.99 41.42L93.02 42.19L92.14 43.06L91.38 44.03L90.73 45.09L90.21 46.22L89.83 47.43L89.59 48.69L89.51 50L89.59 51.31L89.83 52.57L90.21 53.78L90.73 54.91L91.38 55.97L92.14 56.94L93.02 57.81L93.99 58.58L95.05 59.22L96.18 59.75L97.38 60.13L98.65 60.37L99.96 60.45L101.27 60.37L102.53 60.13L103.73 59.75L104.87 59.22L105.92 58.58L106.89 57.81L107.77 56.94L108.53 55.97L109.18 54.91L109.7 53.78L110.09 52.57L110.32 51.31L110.41 50L110.32 48.69L110.09 47.43L109.7 46.22L109.18 45.09L108.53 44.03L107.77 43.06L106.89 42.19L105.92 41.42L104.87 40.78L103.73 40.25L102.53 39.87L101.27 39.63L99.96 39.55L98.65 39.63L97.38 39.87Z" id="a4En4YbOsR"></path></defs><g><g><g><use xlink:href="#c6EmWKQ0t" opacity="1" fill="#ff1b57" fill-opacity="1"></use></g><g><use xlink:href="#a4En4YbOsR" opacity="0.59" fill="#ff1b57" fill-opacity="1"></use></g></g></g></svg>